<svg xmlns="http://www.w3.org/2000/svg" viewBox="0 0 24 24" width="24px" height="24px">
  <path d="M 12 4 C 9.6655084 4 7.7006133 5.2494956 6.4296875 7.0136719 C 2.8854572 7.05389 0 9.9465993 0 13.5 C 0 17.078268 2.9217323 20 6.5 20 L 18.5 20 C 21.525577 20 24 17.525577 24 14.5 C 24 11.509638 21.577034 9.0762027 18.599609 9.0195312 C 17.729938 6.1415745 15.152096 4 12 4 z M 12 6 C 14.504527 6 16.55398 7.825491 16.931641 10.214844 L 17.083984 11.175781 L 18.048828 11.050781 C 18.272182 11.021699 18.414903 11 18.5 11 C 20.444423 11 22 12.555577 22 14.5 C 22 16.444423 20.444423 18 18.5 18 L 6.5 18 C 4.0022677 18 2 15.997732 2 13.5 C 2 11.002268 4.0022677 9 6.5 9 C 6.534993 9 6.6164592 9.0069899 6.75 9.0136719 L 7.3613281 9.0449219 L 7.6660156 8.5136719 C 8.5301088 7.0123517 10.137881 6 12 6 z M 11 9 L 11 13 L 8 13 L 12 17 L 16 13 L 13 13 L 13 9 L 11 9 z" fill="#F11313" />
</svg>